<svg version="1.1" id="Layer_1" xmlns="http://www.w3.org/2000/svg" xmlns:xlink="http://www.w3.org/1999/xlink" x="0px" y="0px"
	 width="100%" viewBox="0 0 500 500" enable-background="new 0 0 500 500" xml:space="preserve">
<path fill="#000000" opacity="1.000000" stroke="none"
	d="
M336.000000,501.000000
	C224.000031,501.000000 112.500053,501.000000 1.000060,501.000000
	C1.000040,334.333405 1.000040,167.666794 1.000020,1.000149
	C167.666565,1.000100 334.333130,1.000100 500.999756,1.000050
	C500.999847,167.666519 500.999847,334.333038 500.999939,500.999786
	C446.166656,501.000000 391.333344,501.000000 336.000000,501.000000
M237.806015,273.421906
	C239.879105,267.320312 241.952179,261.218719 244.005569,255.175110
	C249.708084,256.647766 254.928589,257.995972 260.274902,259.376648
	C258.931549,265.377838 257.460022,270.850098 256.524902,276.412567
	C255.398193,283.114655 254.352051,289.873383 253.992188,296.645905
	C253.757095,301.070526 255.464828,305.412811 259.862946,307.454132
	C264.489746,309.601593 269.162170,308.514282 272.995087,305.432037
	C275.536072,303.388702 277.480652,300.580109 279.581146,298.022888
	C280.599670,296.782867 281.362976,295.333252 282.383270,293.760498
	C288.308350,310.161346 297.690613,309.655426 312.698730,292.546173
	C317.851593,304.543213 321.935577,305.586517 333.720306,298.705566
	C335.759216,299.652405 337.364960,301.048462 338.659729,300.803162
	C339.789978,300.589050 341.055939,298.654999 341.426666,297.259003
	C344.070129,287.304932 346.324890,277.246246 349.043365,267.313904
	C352.048645,256.333740 356.186859,245.830948 364.106079,237.289383
	C366.800018,234.383728 370.157074,233.006470 374.020111,234.434143
	C378.044403,235.921417 378.762329,239.613159 378.202698,243.153320
	C376.908478,251.340500 374.939178,259.420441 373.624115,267.605011
	C372.629974,273.792328 371.141724,280.190643 371.797485,286.288086
	C372.928772,296.807587 382.521301,300.190613 390.854095,293.510162
	C393.637024,291.279083 395.780212,288.250031 398.218140,285.588013
	C402.743561,294.297638 408.680237,296.540436 416.061920,291.620941
	C419.274109,289.480194 421.647308,286.048370 424.291626,283.104187
	C425.311188,281.969025 426.025726,280.559906 427.079895,278.973633
	C432.102173,292.739227 442.015991,294.759674 451.847809,284.501953
	C453.862915,282.399536 455.571289,280.003113 457.552887,277.581055
	C461.735931,289.402679 470.792206,291.414825 479.335938,282.712372
	C480.955963,281.062225 482.651611,279.270081 483.598511,277.214600
	C486.860107,270.134125 489.965179,262.968384 492.723419,255.681290
	C493.217651,254.375656 491.781036,252.339188 491.235870,250.640137
	C489.754517,251.781860 487.605560,252.616455 486.913208,254.121231
	C484.556000,259.244720 483.048553,264.770508 480.557220,269.817139
	C478.827850,273.320221 476.364227,276.654297 473.544434,279.347534
	C472.033356,280.790771 468.601105,281.781219 466.908997,281.024231
	C465.315735,280.311432 463.962769,276.980347 464.090973,274.898926
	C464.446838,269.121124 465.259949,263.309174 466.560974,257.664856
	C469.287354,245.836716 472.549622,234.132278 475.292114,222.307541
	C475.654266,220.746063 474.262695,218.777878 473.683350,216.998062
	C472.245300,218.266312 470.590363,219.367798 469.443054,220.859650
	C468.638031,221.906448 468.524963,223.485428 468.035522,225.040802
	C459.217041,217.121475 450.529755,217.415131 442.720795,225.732651
	C440.575836,228.017288 438.401459,230.539734 437.164276,233.358475
	C434.169769,240.180954 431.760925,247.258530 429.039337,254.203247
	C425.593201,262.996826 422.476501,271.952942 418.437073,280.468658
	C415.807709,286.011841 410.210297,289.061035 407.487671,287.351593
	C403.022705,284.548126 403.798828,279.822357 404.714172,275.640045
	C408.019867,260.536743 411.621277,245.498306 415.020020,230.414886
	C415.547699,228.073120 417.671631,224.715881 413.462799,224.058029
	C412.272797,223.872009 409.758423,226.865524 409.206024,228.789703
	C406.500031,238.215469 404.791229,247.952866 401.691437,257.233246
	C398.500153,266.787476 394.374756,276.064697 390.110748,285.207855
	C388.482391,288.699463 384.930481,291.538208 380.679504,290.026520
	C376.466553,288.528290 377.242950,284.084290 377.750000,280.866943
	C378.990021,272.998657 381.249084,265.288086 382.425659,257.413574
	C383.421387,250.749374 384.202850,243.893311 383.734985,237.216339
	C383.287506,230.830017 378.778809,227.226227 372.349701,227.925430
	C367.361450,228.467926 362.579956,230.911102 357.590546,232.547501
	C356.997833,232.038849 355.576080,230.818741 354.154327,229.598633
	C352.974182,231.186020 351.470856,232.631821 350.697540,234.397415
	C349.776642,236.499924 349.562988,238.900742 348.903229,241.130997
	C344.667877,255.447632 340.676178,269.847107 335.948761,284.000336
	C334.653564,287.877960 331.471405,291.370911 328.451202,294.319275
	C327.021332,295.715118 323.695801,296.200775 321.681152,295.595123
	C320.385986,295.205719 319.512207,292.145447 319.183350,290.160767
	C318.839844,288.087555 319.116638,285.812225 319.571320,283.722961
	C321.799133,273.486481 324.112213,263.267303 326.526520,253.073135
	C327.867493,247.411026 329.645508,241.846603 330.809509,236.152878
	C331.070435,234.876617 329.587372,233.243820 328.907196,231.775177
	C327.585571,232.727295 325.914551,233.436600 325.037842,234.697983
	C324.110901,236.031586 323.940430,237.890961 323.363678,239.767380
	C314.262299,231.871277 305.610718,232.215256 297.898956,240.573471
	C295.556580,243.112213 293.300079,245.986938 291.930573,249.113541
	C289.009094,255.783371 286.695007,262.719147 284.129547,269.545044
	C281.155487,277.458130 278.416199,285.472473 275.076202,293.228058
	C273.885010,295.994080 271.594757,298.599854 269.175659,300.457733
	C264.394287,304.129883 260.342896,302.073029 260.068451,296.071594
	C259.947754,293.432068 260.080780,290.706116 260.612030,288.125092
	C262.489594,279.002838 264.544250,269.915955 266.620758,260.836029
	C267.940765,255.064011 267.404999,254.245132 261.715454,252.979553
	C256.409485,251.799301 251.157104,250.378113 245.801834,249.043213
	C246.562057,241.833771 249.518967,234.293884 240.672531,230.881592
	C236.521164,229.280289 232.803467,231.072968 230.594025,235.130402
	C227.673172,240.494308 229.814285,245.602448 238.389618,253.186157
	C233.131393,267.406464 227.953934,281.944641 222.304199,296.296875
	C220.952820,299.729828 218.394272,302.931458 215.683487,305.489899
	C214.164200,306.923798 210.728012,307.868927 209.014023,307.105896
	C207.408127,306.390900 205.936493,303.033020 206.141602,301.014587
	C206.860764,293.937836 208.350708,286.940796 209.506683,279.906677
	C210.662796,272.871704 212.598831,265.840576 212.700806,258.786194
	C212.849289,248.513611 206.395172,243.119995 197.022644,245.265305
	C193.387711,246.097336 189.972000,248.798050 186.988235,251.285400
	C184.450775,253.400726 182.677094,256.432281 180.435989,259.219574
	C175.653564,245.926804 167.488159,244.759567 154.546112,254.560333
	C153.079819,253.041153 151.681168,251.592026 150.282501,250.142899
	C149.111343,251.759811 147.813004,253.303177 146.818649,255.022354
	C146.258102,255.991501 146.231689,257.259918 145.908005,258.377136
	C141.658081,273.045166 137.682159,287.802582 132.963913,302.318634
	C131.585373,306.559845 128.459259,310.450043 125.396103,313.832764
	C123.919571,315.463379 120.418968,316.587524 118.415718,315.990875
	C116.841652,315.522064 115.244240,312.058319 115.249207,309.928711
	C115.265068,303.131653 115.189339,296.151337 116.648758,289.574585
	C121.259293,268.797729 126.549896,248.171722 131.582687,227.488632
	C132.487198,223.771393 133.704605,220.097733 134.195526,216.328171
	C134.396515,214.784943 133.052261,213.040466 132.410965,211.387543
	C131.055344,212.573425 129.632904,213.694489 128.383240,214.983124
	C127.988701,215.389969 128.084381,216.252808 127.908752,216.894119
	C120.970726,242.229385 114.278999,267.636200 106.960533,292.861176
	C104.035843,302.941895 99.642784,312.653381 91.275154,319.646332
	C86.281418,323.819672 80.246574,327.066772 73.871803,323.638916
	C67.758507,320.351654 67.397331,313.547577 68.429024,307.656830
	C72.473221,284.565582 76.970200,261.551453 81.583267,238.565720
	C81.980019,236.588837 84.210121,234.677292 86.036247,233.352448
	C89.910614,230.541656 94.437523,228.554321 98.040001,225.463684
	C102.708534,221.458466 103.054733,216.783661 99.898476,213.178497
	C96.737457,209.567963 90.335846,209.243698 86.513840,213.448807
	C83.357521,216.921509 80.945961,221.269226 79.017426,225.591949
	C77.671944,228.607773 76.199982,230.210144 72.947151,231.209183
	C60.417282,235.057434 47.728477,238.654877 35.708755,243.776901
	C30.278755,246.090820 24.983833,250.974533 21.886005,256.066345
	C14.054835,268.938232 23.411669,286.511841 37.115993,285.883759
	C38.672470,285.812439 40.152760,284.078857 41.668385,283.116028
	C40.306694,282.027557 39.060852,280.209290 37.564087,279.971710
	C29.222326,278.647522 23.881224,272.389496 25.807653,264.201660
	C26.762285,260.144226 29.278780,255.612442 32.493958,253.078018
	C44.804447,243.373947 60.156132,241.395416 74.793640,237.150421
	C71.266655,254.974045 67.647423,272.050171 64.583076,289.225311
	C62.868500,298.835175 60.428440,308.539307 63.016727,318.415039
	C65.622276,328.356659 73.045692,332.848145 83.111389,330.668274
	C90.866920,328.988708 96.565491,324.297455 101.100311,318.068329
	C103.493225,314.781372 105.584038,311.274475 107.961288,307.637329
	C113.141388,324.866119 117.714668,326.945465 130.007263,318.704651
	C131.570068,319.863403 133.367691,321.957611 134.171753,321.628021
	C135.674179,321.012146 136.886734,319.130707 137.684372,317.511932
	C138.472122,315.913208 138.618500,313.992828 139.010742,312.205750
	C142.259567,297.403259 146.005707,282.728973 153.162094,269.258789
	C155.622604,264.627502 158.659973,260.050629 162.369415,256.399445
	C166.887650,251.952148 173.389801,254.751160 173.928284,261.086975
	C174.234375,264.688416 174.070877,268.464569 173.329224,271.996246
	C170.526489,285.342804 167.300385,298.600769 164.532654,311.954041
	C164.215988,313.481812 165.786575,315.400757 166.482101,317.138306
	C167.807449,315.975098 169.624359,315.052368 170.339462,313.590607
	C171.336258,311.553070 171.479492,309.105133 172.039413,306.845520
	C175.551682,292.671265 177.402649,277.932556 185.041077,265.110016
	C187.720184,260.612640 190.986404,256.184296 194.900574,252.776596
	C199.481155,248.788742 205.434769,251.548203 206.376282,257.535645
	C206.706284,259.634399 206.718826,261.894653 206.321594,263.975250
	C205.137894,270.175354 203.407959,276.279022 202.399399,282.502686
	C201.262817,289.516205 199.706009,296.672821 200.090866,303.670502
	C200.621384,313.316864 209.551743,317.324829 217.431641,311.627441
	C221.442505,308.727417 225.095520,304.490723 227.254501,300.052704
	C231.304352,291.727783 234.150772,282.817413 237.806015,273.421906
M298.911804,224.003113
	C309.832123,224.158936 320.766144,224.685318 331.665894,224.283554
	C335.874695,224.128418 336.838867,220.502838 335.411041,216.376770
	C334.660980,214.209396 334.274200,211.513794 334.848389,209.356094
	C338.527832,195.529541 342.402771,181.751068 346.514160,168.046982
	C347.267548,165.535767 349.502136,163.497238 350.864960,161.132156
	C352.095764,158.996124 354.350189,156.290909 353.798065,154.610382
	C353.238647,152.907471 349.871002,151.368912 347.595428,151.142090
	C342.483887,150.632599 337.285248,151.061279 332.125092,150.957901
	C326.182098,150.838821 321.517822,153.187408 317.861969,157.796387
	C314.033539,162.622910 310.145447,167.402115 306.283661,172.202164
	C301.833771,177.733215 297.384125,183.264450 292.500488,189.334991
	C291.781769,187.497589 291.313477,186.501724 290.997009,185.459717
	C288.289001,176.544205 285.670013,167.601151 282.898529,158.705566
	C280.996887,152.601944 278.805664,151.058640 272.343079,150.977539
	C267.681091,150.919022 263.016266,150.892471 258.355377,150.985687
	C251.451614,151.123764 249.702606,153.807816 251.028229,160.600479
	C251.661911,163.847580 251.731445,167.502518 250.917801,170.681274
	C247.865555,182.605728 244.282928,194.393341 241.033539,206.269028
	C239.999191,210.049255 238.763046,213.352676 235.143082,215.670151
	C233.735870,216.571060 232.595383,219.546844 233.004333,221.151642
	C233.399170,222.701050 235.849075,224.583084 237.566406,224.772034
	C242.002411,225.260117 246.560669,225.196686 251.016571,224.780563
	C255.127548,224.396652 257.502411,221.107635 256.021393,217.839661
	C251.724304,208.357849 258.867340,201.202530 260.206116,192.850357
	C261.490143,194.964828 262.174866,197.007599 262.819672,199.062897
	C264.910980,205.729019 266.718079,212.499786 269.145325,219.040741
	C271.608612,225.678818 277.672211,227.077621 283.127289,222.495941
	C285.276031,220.691223 287.124725,218.488602 288.918243,216.309311
	C293.996307,210.138947 299.024963,203.925903 303.947113,197.631180
	C304.825500,196.507843 305.100739,194.912888 305.654480,193.535690
	C306.407349,194.179504 307.160217,194.823318 307.913086,195.467133
	C304.999573,202.342850 306.286407,210.866104 298.573914,215.918533
	C295.784424,217.745926 295.391663,220.916336 298.911804,224.003113
M163.329453,213.100723
	C166.936630,219.682907 172.759003,223.273895 179.813538,225.014542
	C212.382874,233.050674 244.604309,203.142395 239.064331,169.998428
	C237.410599,160.104645 231.270905,153.903854 221.891693,151.190582
	C200.750656,145.074783 178.574051,153.931885 167.981659,173.202728
	C161.265823,185.420944 157.381531,198.435303 163.329453,213.100723
M418.142120,215.258224
	C419.448395,214.149979 421.429504,213.278656 421.919220,211.883743
	C422.913116,209.052658 421.828247,206.533051 418.586121,205.803146
	C415.554993,205.120697 413.136688,206.348267 412.535095,209.447159
	C411.829193,213.083206 413.799835,215.048096 418.142120,215.258224
z"/>
<path fill="#1FCDBC" opacity="1.000000" stroke="none"
	d="
M237.651855,273.786224
	C234.150772,282.817413 231.304352,291.727783 227.254501,300.052704
	C225.095520,304.490723 221.442505,308.727417 217.431641,311.627441
	C209.551743,317.324829 200.621384,313.316864 200.090866,303.670502
	C199.706009,296.672821 201.262817,289.516205 202.399399,282.502686
	C203.407959,276.279022 205.137894,270.175354 206.321594,263.975250
	C206.718826,261.894653 206.706284,259.634399 206.376282,257.535645
	C205.434769,251.548203 199.481155,248.788742 194.900574,252.776596
	C190.986404,256.184296 187.720184,260.612640 185.041077,265.110016
	C177.402649,277.932556 175.551682,292.671265 172.039413,306.845520
	C171.479492,309.105133 171.336258,311.553070 170.339462,313.590607
	C169.624359,315.052368 167.807449,315.975098 166.482101,317.138306
	C165.786575,315.400757 164.215988,313.481812 164.532654,311.954041
	C167.300385,298.600769 170.526489,285.342804 173.329224,271.996246
	C174.070877,268.464569 174.234375,264.688416 173.928284,261.086975
	C173.389801,254.751160 166.887650,251.952148 162.369415,256.399445
	C158.659973,260.050629 155.622604,264.627502 153.162094,269.258789
	C146.005707,282.728973 142.259567,297.403259 139.010742,312.205750
	C138.618500,313.992828 138.472122,315.913208 137.684372,317.511932
	C136.886734,319.130707 135.674179,321.012146 134.171753,321.628021
	C133.367691,321.957611 131.570068,319.863403 130.007263,318.704651
	C117.714668,326.945465 113.141388,324.866119 107.961288,307.637329
	C105.584038,311.274475 103.493225,314.781372 101.100311,318.068329
	C96.565491,324.297455 90.866920,328.988708 83.111389,330.668274
	C73.045692,332.848145 65.622276,328.356659 63.016727,318.415039
	C60.428440,308.539307 62.868500,298.835175 64.583076,289.225311
	C67.647423,272.050171 71.266655,254.974045 74.793640,237.150421
	C60.156132,241.395416 44.804447,243.373947 32.493958,253.078018
	C29.278780,255.612442 26.762285,260.144226 25.807653,264.201660
	C23.881224,272.389496 29.222326,278.647522 37.564087,279.971710
	C39.060852,280.209290 40.306694,282.027557 41.668381,283.116028
	C40.152760,284.078857 38.672470,285.812439 37.115993,285.883759
	C23.411669,286.511841 14.054835,268.938232 21.886005,256.066345
	C24.983833,250.974533 30.278755,246.090820 35.708755,243.776901
	C47.728477,238.654877 60.417282,235.057434 72.947151,231.209183
	C76.199982,230.210144 77.671944,228.607773 79.017426,225.591949
	C80.945961,221.269226 83.357521,216.921509 86.513840,213.448807
	C90.335846,209.243698 96.737457,209.567963 99.898476,213.178497
	C103.054733,216.783661 102.708534,221.458466 98.040001,225.463684
	C94.437523,228.554321 89.910614,230.541656 86.036247,233.352448
	C84.210121,234.677292 81.980019,236.588837 81.583267,238.565720
	C76.970200,261.551453 72.473221,284.565582 68.429024,307.656830
	C67.397331,313.547577 67.758507,320.351654 73.871803,323.638916
	C80.246574,327.066772 86.281418,323.819672 91.275154,319.646332
	C99.642784,312.653381 104.035843,302.941895 106.960533,292.861176
	C114.278999,267.636200 120.970726,242.229385 127.908752,216.894119
	C128.084381,216.252808 127.988701,215.389969 128.383240,214.983124
	C129.632904,213.694489 131.055344,212.573425 132.410965,211.387543
	C133.052261,213.040466 134.396515,214.784943 134.195526,216.328171
	C133.704605,220.097733 132.487198,223.771393 131.582687,227.488632
	C126.549896,248.171722 121.259293,268.797729 116.648758,289.574585
	C115.189339,296.151337 115.265068,303.131653 115.249207,309.928711
	C115.244240,312.058319 116.841652,315.522064 118.415718,315.990875
	C120.418968,316.587524 123.919571,315.463379 125.396103,313.832764
	C128.459259,310.450043 131.585373,306.559845 132.963913,302.318634
	C137.682159,287.802582 141.658081,273.045166 145.908005,258.377136
	C146.231689,257.259918 146.258102,255.991501 146.818649,255.022354
	C147.813004,253.303177 149.111343,251.759811 150.282501,250.142899
	C151.681168,251.592026 153.079819,253.041153 154.546112,254.560333
	C167.488159,244.759567 175.653564,245.926804 180.435989,259.219574
	C182.677094,256.432281 184.450775,253.400726 186.988235,251.285400
	C189.972000,248.798050 193.387711,246.097336 197.022644,245.265305
	C206.395172,243.119995 212.849289,248.513611 212.700806,258.786194
	C212.598831,265.840576 210.662796,272.871704 209.506683,279.906677
	C208.350708,286.940796 206.860764,293.937836 206.141602,301.014587
	C205.936493,303.033020 207.408127,306.390900 209.014023,307.105896
	C210.728012,307.868927 214.164200,306.923798 215.683487,305.489899
	C218.394272,302.931458 220.952820,299.729828 222.304199,296.296875
	C227.953934,281.944641 233.131393,267.406464 238.389618,253.186157
	C229.814285,245.602448 227.673172,240.494308 230.594025,235.130402
	C232.803467,231.072968 236.521164,229.280289 240.672531,230.881592
	C249.518967,234.293884 246.562057,241.833771 245.801834,249.043213
	C251.157104,250.378113 256.409485,251.799301 261.715454,252.979553
	C267.404999,254.245132 267.940765,255.064011 266.620758,260.836029
	C264.544250,269.915955 262.489594,279.002838 260.612030,288.125092
	C260.080780,290.706116 259.947754,293.432068 260.068451,296.071594
	C260.342896,302.073029 264.394287,304.129883 269.175659,300.457733
	C271.594757,298.599854 273.885010,295.994080 275.076202,293.228058
	C278.416199,285.472473 281.155487,277.458130 284.129547,269.545044
	C286.695007,262.719147 289.009094,255.783371 291.930573,249.113541
	C293.300079,245.986938 295.556580,243.112213 297.898956,240.573471
	C305.610718,232.215256 314.262299,231.871277 323.363678,239.767380
	C323.940430,237.890961 324.110901,236.031586 325.037842,234.697983
	C325.914551,233.436600 327.585571,232.727295 328.907196,231.775177
	C329.587372,233.243820 331.070435,234.876617 330.809509,236.152878
	C329.645508,241.846603 327.867493,247.411026 326.526520,253.073135
	C324.112213,263.267303 321.799133,273.486481 319.571320,283.722961
	C319.116638,285.812225 318.839844,288.087555 319.183350,290.160767
	C319.512207,292.145447 320.385986,295.205719 321.681152,295.595123
	C323.695801,296.200775 327.021332,295.715118 328.451202,294.319275
	C331.471405,291.370911 334.653564,287.877960 335.948761,284.000336
	C340.676178,269.847107 344.667877,255.447632 348.903229,241.130997
	C349.562988,238.900742 349.776642,236.499924 350.697540,234.397415
	C351.470856,232.631821 352.974182,231.186020 354.154327,229.598633
	C355.576080,230.818741 356.997833,232.038849 357.590546,232.547501
	C362.579956,230.911102 367.361450,228.467926 372.349701,227.925430
	C378.778809,227.226227 383.287506,230.830017 383.734985,237.216339
	C384.202850,243.893311 383.421387,250.749374 382.425659,257.413574
	C381.249084,265.288086 378.990021,272.998657 377.750000,280.866943
	C377.242950,284.084290 376.466553,288.528290 380.679504,290.026520
	C384.930481,291.538208 388.482391,288.699463 390.110748,285.207855
	C394.374756,276.064697 398.500153,266.787476 401.691437,257.233246
	C404.791229,247.952866 406.500031,238.215469 409.206024,228.789703
	C409.758423,226.865524 412.272797,223.872009 413.462799,224.058029
	C417.671631,224.715881 415.547699,228.073120 415.020020,230.414886
	C411.621277,245.498306 408.019867,260.536743 404.714172,275.640045
	C403.798828,279.822357 403.022705,284.548126 407.487671,287.351593
	C410.210297,289.061035 415.807709,286.011841 418.437073,280.468658
	C422.476501,271.952942 425.593201,262.996826 429.039337,254.203247
	C431.760925,247.258530 434.169769,240.180954 437.164276,233.358475
	C438.401459,230.539734 440.575836,228.017288 442.720795,225.732651
	C450.529755,217.415131 459.217041,217.121475 468.035522,225.040802
	C468.524963,223.485428 468.638031,221.906448 469.443054,220.859650
	C470.590363,219.367798 472.245300,218.266312 473.683350,216.998047
	C474.262695,218.777878 475.654266,220.746063 475.292114,222.307541
	C472.549622,234.132278 469.287354,245.836716 466.560974,257.664856
	C465.259949,263.309174 464.446838,269.121124 464.090973,274.898926
	C463.962769,276.980347 465.315735,280.311432 466.908997,281.024231
	C468.601105,281.781219 472.033356,280.790771 473.544434,279.347534
	C476.364227,276.654297 478.827850,273.320221 480.557220,269.817139
	C483.048553,264.770508 484.556000,259.244720 486.913208,254.121231
	C487.605560,252.616455 489.754517,251.781860 491.235901,250.640152
	C491.781036,252.339188 493.217651,254.375656 492.723419,255.681290
	C489.965179,262.968384 486.860107,270.134125 483.598511,277.214600
	C482.651611,279.270081 480.955963,281.062225 479.335938,282.712372
	C470.792206,291.414825 461.735931,289.402679 457.552887,277.581055
	C455.571289,280.003113 453.862915,282.399536 451.847809,284.501953
	C442.015991,294.759674 432.102173,292.739227 427.079895,278.973633
	C426.025726,280.559906 425.311188,281.969025 424.291626,283.104187
	C421.647308,286.048370 419.274109,289.480194 416.061920,291.620941
	C408.680237,296.540436 402.743561,294.297638 398.216980,285.586853
	C395.780212,288.250031 393.637024,291.279083 390.854095,293.510162
	C382.521301,300.190613 372.928772,296.807587 371.797485,286.288086
	C371.141724,280.190643 372.629974,273.792328 373.624115,267.605011
	C374.939178,259.420441 376.908478,251.340500 378.202698,243.153320
	C378.762329,239.613159 378.044403,235.921417 374.020111,234.434143
	C370.157074,233.006470 366.800018,234.383728 364.106079,237.289383
	C356.186859,245.830948 352.048645,256.333740 349.043365,267.313904
	C346.324890,277.246246 344.070129,287.304932 341.426666,297.259003
	C341.055939,298.654999 339.789978,300.589050 338.659729,300.803162
	C337.364960,301.048462 335.759216,299.652405 333.720306,298.705566
	C321.935577,305.586517 317.851593,304.543213 312.698730,292.546173
	C297.690613,309.655426 288.308350,310.161346 282.383270,293.760498
	C281.362976,295.333252 280.599670,296.782867 279.581146,298.022888
	C277.480652,300.580109 275.536072,303.388702 272.995087,305.432037
	C269.162170,308.514282 264.489746,309.601593 259.862946,307.454132
	C255.464828,305.412811 253.757095,301.070526 253.992188,296.645905
	C254.352051,289.873383 255.398193,283.114655 256.524902,276.412567
	C257.460022,270.850098 258.931549,265.377838 260.274902,259.376648
	C254.928589,257.995972 249.708084,256.647766 244.005569,255.175110
	C241.952179,261.218719 239.879105,267.320312 237.651855,273.786224
M434.191467,259.961365
	C434.110596,266.390381 433.366333,272.901489 434.148804,279.223663
	C434.832825,284.750122 439.162323,286.418335 443.711700,283.139954
	C446.959259,280.799652 450.336090,277.548065 451.749786,273.953705
	C456.412415,262.099152 460.263458,249.922165 464.310028,237.830154
	C465.845306,233.242340 463.851624,229.597427 460.174225,227.098541
	C456.640747,224.697449 452.544067,224.975098 449.605438,227.930252
	C446.380951,231.172897 443.156036,234.833664 441.310913,238.933167
	C438.403381,245.393173 436.648621,252.372025 434.191467,259.961365
M288.333984,289.868622
	C288.529510,290.846680 288.702484,291.829895 288.924225,292.801971
	C290.492889,299.680176 295.040649,301.463409 300.508850,296.961487
	C303.013031,294.899872 305.635620,292.263916 306.733521,289.336731
	C311.441071,276.785675 315.968506,264.134277 319.646973,251.258163
	C320.370667,248.725037 317.678009,244.446716 315.424530,242.035187
	C312.852142,239.282410 308.717010,239.567017 305.821655,242.010803
	C302.836151,244.530655 299.901306,247.492676 298.012115,250.860306
	C291.397217,262.651642 288.263123,275.466614 288.333984,289.868622
M90.078529,224.497971
	C91.195404,223.541519 92.669769,222.781631 93.332863,221.575668
	C94.057259,220.258255 94.030876,218.528046 94.331741,216.977753
	C92.776962,217.472794 90.702629,217.508698 89.775200,218.558167
	C87.823235,220.766937 86.472755,223.507263 84.875427,226.029434
	C85.141121,226.252197 85.406815,226.474945 85.672508,226.697693
	C86.951126,226.106873 88.229736,225.516052 90.078529,224.497971
M235.925858,240.929443
	C236.951828,242.505676 237.977798,244.081894 239.580750,246.544540
	C240.142365,243.734955 240.894958,242.055618 240.658340,240.529648
	C240.448532,239.176651 239.139481,237.994110 238.315674,236.736298
	C237.472427,237.871033 236.629166,239.005768 235.925858,240.929443
z"/>
<path fill="#ED4CA7" opacity="1.000000" stroke="none"
	d="
M298.563538,223.817017
	C295.391663,220.916336 295.784424,217.745926 298.573914,215.918533
	C306.286407,210.866104 304.999573,202.342850 307.913086,195.467133
	C307.160217,194.823318 306.407349,194.179504 305.654480,193.535690
	C305.100739,194.912888 304.825500,196.507843 303.947113,197.631180
	C299.024963,203.925903 293.996307,210.138947 288.918243,216.309311
	C287.124725,218.488602 285.276031,220.691223 283.127289,222.495941
	C277.672211,227.077621 271.608612,225.678818 269.145325,219.040741
	C266.718079,212.499786 264.910980,205.729019 262.819672,199.062897
	C262.174866,197.007599 261.490143,194.964828 260.206116,192.850357
	C258.867340,201.202530 251.724304,208.357849 256.021393,217.839661
	C257.502411,221.107635 255.127548,224.396652 251.016571,224.780563
	C246.560669,225.196686 242.002411,225.260117 237.566406,224.772034
	C235.849075,224.583084 233.399170,222.701050 233.004333,221.151642
	C232.595383,219.546844 233.735870,216.571060 235.143082,215.670151
	C238.763046,213.352676 239.999191,210.049255 241.033539,206.269028
	C244.282928,194.393341 247.865555,182.605728 250.917801,170.681274
	C251.731445,167.502518 251.661911,163.847580 251.028229,160.600479
	C249.702606,153.807816 251.451614,151.123764 258.355377,150.985687
	C263.016266,150.892471 267.681091,150.919022 272.343079,150.977539
	C278.805664,151.058640 280.996887,152.601944 282.898529,158.705566
	C285.670013,167.601151 288.289001,176.544205 290.997009,185.459717
	C291.313477,186.501724 291.781769,187.497589 292.500488,189.334991
	C297.384125,183.264450 301.833771,177.733215 306.283661,172.202164
	C310.145447,167.402115 314.033539,162.622910 317.861969,157.796387
	C321.517822,153.187408 326.182098,150.838821 332.125092,150.957901
	C337.285248,151.061279 342.483887,150.632599 347.595428,151.142090
	C349.871002,151.368912 353.238647,152.907471 353.798065,154.610382
	C354.350189,156.290909 352.095764,158.996124 350.864960,161.132156
	C349.502136,163.497238 347.267548,165.535767 346.514160,168.046982
	C342.402771,181.751068 338.527832,195.529541 334.848389,209.356094
	C334.274200,211.513794 334.660980,214.209396 335.411041,216.376770
	C336.838867,220.502838 335.874695,224.128418 331.665894,224.283554
	C320.766144,224.685318 309.832123,224.158936 298.563538,223.817017
M264.608032,190.827011
	C266.590607,197.354996 268.319427,203.975510 270.653229,210.375412
	C271.999725,214.067902 274.323242,217.404129 276.207001,220.900696
	C279.508484,218.361008 283.370605,216.298019 286.009369,213.194794
	C294.947052,202.683807 303.451599,191.804520 312.985107,179.996490
	C313.978210,182.104950 315.447388,183.743378 315.088745,184.687546
	C310.593994,196.520889 311.687744,210.599548 300.548859,220.293015
	C311.330414,220.293015 321.560791,220.293015 331.541138,220.293015
	C330.961273,216.795761 329.563721,213.715668 330.176392,211.107834
	C332.457581,201.397537 335.039307,191.722321 338.195526,182.263290
	C341.247681,173.116165 340.838867,162.381683 350.013672,155.549316
	C344.386017,155.025040 339.119812,155.244629 333.880066,154.966522
	C328.027649,154.655914 323.732941,156.811096 320.133606,161.422379
	C311.630829,172.315689 302.865936,183.004578 294.189880,193.762314
	C293.190918,195.000992 292.083649,196.152313 290.610687,197.813019
	C289.869232,195.625351 289.314636,194.124359 288.849976,192.596024
	C285.558380,181.770096 282.221588,170.957169 279.042572,160.098129
	C278.008484,156.565796 276.165039,154.767365 272.276428,154.971024
	C267.792358,155.205841 263.282745,155.139145 258.791473,154.987885
	C255.504471,154.877167 253.704071,156.044708 255.174301,159.324234
	C257.271210,164.001709 256.106384,168.334274 254.781311,172.839325
	C251.870239,182.736603 249.040848,192.659393 246.319550,202.610443
	C244.570770,209.005219 243.319946,215.598526 237.211838,219.646591
	C237.121368,219.706558 237.337341,220.228928 237.376938,220.395340
	C242.266983,220.395340 247.086075,220.395340 253.321167,220.395340
	C248.006287,214.695328 250.615723,209.616531 252.021317,204.558548
	C253.981552,197.504654 256.016510,190.471390 258.045715,183.436859
	C258.568268,181.625412 259.188873,179.842239 259.764404,178.046066
	C260.081390,178.099030 260.398346,178.151993 260.715332,178.204956
	C261.920593,182.163040 263.125854,186.121124 264.608032,190.827011
z"/>
<path fill="#EC4CA7" opacity="1.000000" stroke="none"
	d="
M163.169785,212.764160
	C157.381531,198.435303 161.265823,185.420944 167.981659,173.202728
	C178.574051,153.931885 200.750656,145.074783 221.891693,151.190582
	C231.270905,153.903854 237.410599,160.104645 239.064331,169.998428
	C244.604309,203.142395 212.382874,233.050674 179.813538,225.014542
	C172.759003,223.273895 166.936630,219.682907 163.169785,212.764160
M232.427429,191.719193
	C233.405319,185.844727 235.141006,179.976654 235.190811,174.094345
	C235.274048,164.259491 230.106689,157.341827 220.483826,155.317657
	C213.819214,153.915756 206.464127,153.524719 199.809692,154.772781
	C179.998657,158.488419 166.667969,175.047363 164.731873,196.767410
	C163.383316,211.896194 171.725327,221.430573 186.848190,222.044937
	C208.874603,222.939743 223.914322,213.117523 232.427429,191.719193
z"/>
<path fill="#1FCCBB" opacity="1.000000" stroke="none"
	d="
M417.795471,215.299164
	C413.799835,215.048096 411.829193,213.083206 412.535095,209.447159
	C413.136688,206.348267 415.554993,205.120697 418.586121,205.803146
	C421.828247,206.533051 422.913116,209.052658 421.919220,211.883743
	C421.429504,213.278656 419.448395,214.149979 417.795471,215.299164
z"/>
<path fill="#010302" opacity="1.000000" stroke="none"
	d="
M434.298645,259.546295
	C436.648621,252.372025 438.403381,245.393173 441.310913,238.933167
	C443.156036,234.833664 446.380951,231.172897 449.605438,227.930252
	C452.544067,224.975098 456.640747,224.697449 460.174225,227.098541
	C463.851624,229.597427 465.845306,233.242340 464.310028,237.830154
	C460.263458,249.922165 456.412415,262.099152 451.749786,273.953705
	C450.336090,277.548065 446.959259,280.799652 443.711700,283.139954
	C439.162323,286.418335 434.832825,284.750122 434.148804,279.223663
	C433.366333,272.901489 434.110596,266.390381 434.298645,259.546295
z"/>
<path fill="#010303" opacity="1.000000" stroke="none"
	d="
M288.276794,289.439697
	C288.263123,275.466614 291.397217,262.651642 298.012115,250.860306
	C299.901306,247.492676 302.836151,244.530655 305.821655,242.010803
	C308.717010,239.567017 312.852142,239.282410 315.424530,242.035187
	C317.678009,244.446716 320.370667,248.725037 319.646973,251.258163
	C315.968506,264.134277 311.441071,276.785675 306.733521,289.336731
	C305.635620,292.263916 303.013031,294.899872 300.508850,296.961487
	C295.040649,301.463409 290.492889,299.680176 288.924225,292.801971
	C288.702484,291.829895 288.529510,290.846680 288.276794,289.439697
z"/>
<path fill="#041110" opacity="1.000000" stroke="none"
	d="
M89.793442,224.711594
	C88.229736,225.516052 86.951126,226.106873 85.672508,226.697693
	C85.406815,226.474945 85.141121,226.252197 84.875427,226.029434
	C86.472755,223.507263 87.823235,220.766937 89.775200,218.558167
	C90.702629,217.508698 92.776962,217.472794 94.331741,216.977753
	C94.030876,218.528046 94.057259,220.258255 93.332863,221.575668
	C92.669769,222.781631 91.195404,223.541519 89.793442,224.711594
z"/>
<path fill="#04100F" opacity="1.000000" stroke="none"
	d="
M235.855896,240.534973
	C236.629166,239.005768 237.472427,237.871033 238.315674,236.736298
	C239.139481,237.994110 240.448532,239.176651 240.658340,240.529648
	C240.894958,242.055618 240.142365,243.734955 239.580750,246.544540
	C237.977798,244.081894 236.951828,242.505676 235.855896,240.534973
z"/>
<path fill="#060204" opacity="1.000000" stroke="none"
	d="
M264.469574,190.453110
	C263.125854,186.121124 261.920593,182.163040 260.715332,178.204956
	C260.398346,178.151993 260.081390,178.099030 259.764404,178.046066
	C259.188873,179.842239 258.568268,181.625412 258.045715,183.436859
	C256.016510,190.471390 253.981552,197.504654 252.021317,204.558548
	C250.615723,209.616531 248.006287,214.695328 253.321167,220.395340
	C247.086075,220.395340 242.266983,220.395340 237.376938,220.395340
	C237.337341,220.228928 237.121368,219.706558 237.211838,219.646591
	C243.319946,215.598526 244.570770,209.005219 246.319550,202.610443
	C249.040848,192.659393 251.870239,182.736603 254.781311,172.839325
	C256.106384,168.334274 257.271210,164.001709 255.174301,159.324234
	C253.704071,156.044708 255.504471,154.877167 258.791473,154.987885
	C263.282745,155.139145 267.792358,155.205841 272.276428,154.971024
	C276.165039,154.767365 278.008484,156.565796 279.042572,160.098129
	C282.221588,170.957169 285.558380,181.770096 288.849976,192.596024
	C289.314636,194.124359 289.869232,195.625351 290.610687,197.813019
	C292.083649,196.152313 293.190918,195.000992 294.189880,193.762314
	C302.865936,183.004578 311.630829,172.315689 320.133606,161.422379
	C323.732941,156.811096 328.027649,154.655914 333.880066,154.966522
	C339.119812,155.244629 344.386017,155.025040 350.013672,155.549316
	C340.838867,162.381683 341.247681,173.116165 338.195526,182.263290
	C335.039307,191.722321 332.457581,201.397537 330.176392,211.107834
	C329.563721,213.715668 330.961273,216.795761 331.541138,220.293015
	C321.560791,220.293015 311.330414,220.293015 300.548859,220.293015
	C311.687744,210.599548 310.593994,196.520889 315.088745,184.687546
	C315.447388,183.743378 313.978210,182.104950 312.985107,179.996490
	C303.451599,191.804520 294.947052,202.683807 286.009369,213.194794
	C283.370605,216.298019 279.508484,218.361008 276.207001,220.900696
	C274.323242,217.404129 271.999725,214.067902 270.653229,210.375412
	C268.319427,203.975510 266.590607,197.354996 264.469574,190.453110
z"/>
<path fill="#050203" opacity="1.000000" stroke="none"
	d="
M232.292160,192.086823
	C223.914322,213.117523 208.874603,222.939743 186.848190,222.044937
	C171.725327,221.430573 163.383316,211.896194 164.731873,196.767410
	C166.667969,175.047363 179.998657,158.488419 199.809692,154.772781
	C206.464127,153.524719 213.819214,153.915756 220.483826,155.317657
	C230.106689,157.341827 235.274048,164.259491 235.190811,174.094345
	C235.141006,179.976654 233.405319,185.844727 232.292160,192.086823
M203.202606,207.642776
	C206.791214,195.755524 210.413849,183.878281 213.922760,171.967545
	C214.333420,170.573593 214.556305,168.840225 214.097015,167.534866
	C213.215759,165.030304 212.205017,161.152802 210.481293,160.687943
	C207.736572,159.947769 203.866562,160.763428 201.398132,162.355942
	C198.957596,163.930435 196.894714,167.042953 196.001907,169.898438
	C192.197205,182.067017 188.847519,194.379318 185.453094,206.672668
	C185.073730,208.046555 185.275955,209.667511 185.535065,211.115448
	C186.404221,215.972504 190.359741,218.672516 194.616791,216.367126
	C197.876587,214.601776 200.178482,211.067642 203.202606,207.642776
z"/>
<path fill="#E94BA5" opacity="1.000000" stroke="none"
	d="
M203.054535,207.981506
	C200.178482,211.067642 197.876587,214.601776 194.616791,216.367126
	C190.359741,218.672516 186.404221,215.972504 185.535065,211.115448
	C185.275955,209.667511 185.073730,208.046555 185.453094,206.672668
	C188.847519,194.379318 192.197205,182.067017 196.001907,169.898438
	C196.894714,167.042953 198.957596,163.930435 201.398132,162.355942
	C203.866562,160.763428 207.736572,159.947769 210.481293,160.687943
	C212.205017,161.152802 213.215759,165.030304 214.097015,167.534866
	C214.556305,168.840225 214.333420,170.573593 213.922760,171.967545
	C210.413849,183.878281 206.791214,195.755524 203.054535,207.981506
M202.612167,198.991898
	C205.081238,189.334793 207.690262,179.709366 209.890732,169.991440
	C210.288284,168.235794 209.007690,166.100143 208.501862,164.139923
	C206.403778,165.170120 204.209076,166.048859 202.250839,167.298264
	C201.354050,167.870422 200.640472,169.087830 200.323029,170.155136
	C196.634689,182.555496 192.934708,194.955124 189.552032,207.440079
	C189.144272,208.945038 190.585022,210.950821 191.169006,212.724472
	C193.055191,211.922867 195.663589,211.637634 196.680908,210.214813
	C198.972244,207.010178 200.475616,203.242157 202.612167,198.991898
z"/>
<path fill="#090306" opacity="1.000000" stroke="none"
	d="
M202.455902,199.347656
	C200.475616,203.242157 198.972244,207.010178 196.680908,210.214813
	C195.663589,211.637634 193.055191,211.922867 191.169006,212.724487
	C190.585022,210.950821 189.144272,208.945038 189.552032,207.440079
	C192.934708,194.955124 196.634689,182.555496 200.323029,170.155136
	C200.640472,169.087830 201.354050,167.870422 202.250839,167.298264
	C204.209076,166.048859 206.403778,165.170120 208.501862,164.139923
	C209.007690,166.100143 210.288284,168.235794 209.890732,169.991440
	C207.690262,179.709366 205.081238,189.334793 202.455902,199.347656
z"/>
</svg>
